<svg width="60" height="60" viewBox="0 0 60 60" fill="none" xmlns="http://www.w3.org/2000/svg">
<path d="M60 30C60 46.5685 46.5685 60 30 60C13.4315 60 0 46.5685 0 30C0 13.4315 13.4315 0 30 0C46.5685 0 60 13.4315 60 30Z" fill="#D9D9D9"/>
<path d="M39.4497 20.9494C39.4497 26.4444 34.9951 30.8989 29.5002 30.8989C24.0053 30.8989 19.5508 26.4444 19.5508 20.9494C19.5508 15.4545 24.0053 11 29.5002 11C34.9951 11 39.4497 15.4545 39.4497 20.9494Z" fill="white"/>
<path d="M45.5054 42.5786C45.5054 48.0735 38.3394 49.4999 29.4998 49.4999C20.6601 49.4999 13.4941 48.0735 13.4941 42.5786C13.4941 37.0837 20.6601 32.6292 29.4998 32.6292C38.3394 32.6292 45.5054 37.0837 45.5054 42.5786Z" fill="white"/>
<path d="M60 50.5C60 54.6421 56.6421 58 52.5 58C48.3579 58 45 54.6421 45 50.5C45 46.3579 48.3579 43 52.5 43C56.6421 43 60 46.3579 60 50.5Z" fill="#007AFF"/>
<path d="M51.8801 53.6801H53.1881V51.1361H55.6121V49.8761H53.1881V47.3201H51.8801V49.8761H49.4561V51.1361H51.8801V53.6801Z" fill="white"/>
</svg>
