<svg width="48" height="48" viewBox="0 0 48 48" fill="none" xmlns="http://www.w3.org/2000/svg">
<path d="M48 24C48 37.2548 37.2548 48 24 48C10.7452 48 0 37.2548 0 24C0 10.7452 10.7452 0 24 0C37.2548 0 48 10.7452 48 24Z" fill="#D9D9D9"/>
<mask id="mask0_500_361" style="mask-type:alpha" maskUnits="userSpaceOnUse" x="12" y="12" width="24" height="24">
<rect x="12" y="12" width="24" height="24" fill="#D9D9D9"/>
</mask>
<g mask="url(#mask0_500_361)">
<path d="M23.999 24.0001C22.899 24.0001 21.9574 23.6085 21.174 22.8251C20.3907 22.0418 19.999 21.1001 19.999 20.0001C19.999 18.9001 20.3907 17.9585 21.174 17.1751C21.9574 16.3918 22.899 16.0001 23.999 16.0001C25.099 16.0001 26.0407 16.3918 26.824 17.1751C27.6074 17.9585 27.999 18.9001 27.999 20.0001C27.999 21.1001 27.6074 22.0418 26.824 22.8251C26.0407 23.6085 25.099 24.0001 23.999 24.0001ZM15.999 32.0001V29.2001C15.999 28.6335 16.145 28.1125 16.437 27.6371C16.7284 27.1625 17.1157 26.8001 17.599 26.5501C18.6324 26.0335 19.6824 25.6458 20.749 25.3871C21.8157 25.1291 22.899 25.0001 23.999 25.0001C25.099 25.0001 26.1824 25.1291 27.249 25.3871C28.3157 25.6458 29.3657 26.0335 30.399 26.5501C30.8824 26.8001 31.2697 27.1625 31.561 27.6371C31.853 28.1125 31.999 28.6335 31.999 29.2001V32.0001H15.999Z" fill="white"/>
</g>
</svg>
